<?xml version="1.0" encoding="utf-8"?>
<!-- Generator: Adobe Illustrator 19.0.1, SVG Export Plug-In . SVG Version: 6.00 Build 0)  -->
<svg version="1.1" xmlns="http://www.w3.org/2000/svg" xmlns:xlink="http://www.w3.org/1999/xlink" x="0px" y="0px"
	 viewBox="0 0 235.8 123.1" enable-background="new 0 0 235.8 123.1" xml:space="preserve">
<g id="Layer_2">
</g>
<g id="Layer_1">
	<g>
		<path fill="#A8C73E" d="M10.9,28L99.6,24l0.6,7.8l26.3-17.9L97.9,0l0.6,7.8L5.1,17.2l-0.3,0c-2.8,0.3-4.9,2.7-4.8,5.5l2.3,74.6
			l0,0.2c0.1,1.8,1.5,3.2,3.3,3.1l112.5-3.4L8.9,94.1L10.9,28z"/>
		<path fill="#A8C73E" d="M233.5,22.7l0-0.2c0-1.8-1.5-3.2-3.3-3.1l-97.6,3.1l94.2,3.4l-2,66.1l-88.7,4.1l-0.6-7.8l-26.3,17.9
			l28.6,13.9l-0.6-7.8l93.3-9.4l0.3,0c2.8-0.3,4.9-2.7,4.8-5.5L233.5,22.7z"/>
		<g>
			<path fill="#A8C73E" d="M122.9,38.3h7.3v25.4c0,4-0.3,6.9-1,8.5c-0.6,1.6-1.7,2.9-3.2,3.9c-1.5,1-3.2,1.4-5.3,1.4
				c-4.2,0-7.8-1.8-10.8-5.5l5.3-4.9c1.2,1.3,2.2,2.2,3,2.7c0.8,0.5,1.6,0.7,2.4,0.7c0.8,0,1.4-0.3,1.7-1c0.4-0.7,0.6-2.1,0.6-4.3
				V38.3z"/>
			<path fill="#A8C73E" d="M148.9,47.6c2.7,0,5.2,0.7,7.5,2c2.4,1.3,4.2,3.1,5.5,5.4c1.3,2.3,2,4.8,2,7.4c0,2.7-0.7,5.2-2,7.5
				c-1.3,2.3-3.1,4.1-5.4,5.5c-2.3,1.3-4.8,2-7.6,2c-4.1,0-7.5-1.4-10.4-4.3c-2.9-2.9-4.3-6.4-4.3-10.5c0-4.4,1.6-8.1,4.9-11.1
				C142,48.9,145.2,47.6,148.9,47.6z M149,54.3c-2.2,0-4,0.8-5.5,2.3c-1.5,1.5-2.2,3.5-2.2,5.9c0,2.5,0.7,4.5,2.2,6
				c1.5,1.5,3.3,2.3,5.5,2.3c2.2,0,4.1-0.8,5.6-2.3c1.5-1.5,2.2-3.5,2.2-6s-0.7-4.4-2.2-5.9C153.2,55,151.3,54.3,149,54.3z"/>
			<path fill="#A8C73E" d="M174.7,37.4v14.1c1.3-1.3,2.7-2.2,4.2-2.9c1.5-0.6,3.1-1,4.8-1c3.7,0,6.8,1.4,9.4,4.2
				c2.6,2.8,3.9,6.4,3.9,10.7c0,4.2-1.3,7.7-4,10.6c-2.7,2.8-5.8,4.3-9.5,4.3c-1.6,0-3.1-0.3-4.6-0.9c-1.4-0.6-2.8-1.5-4.2-2.8v3
				h-7.1V37.4H174.7z M182.1,54.1c-2.2,0-4.1,0.8-5.6,2.3c-1.5,1.5-2.2,3.5-2.2,6c0,2.5,0.7,4.5,2.2,6.1c1.5,1.6,3.3,2.3,5.6,2.3
				c2.2,0,4-0.8,5.5-2.4c1.5-1.6,2.2-3.6,2.2-6c0-2.4-0.7-4.4-2.2-6C186.2,54.9,184.4,54.1,182.1,54.1z"/>
			<path fill="#A8C73E" d="M218.1,52.3l-4.4,4.4c-1.8-1.8-3.4-2.7-4.9-2.7c-0.8,0-1.4,0.2-1.9,0.5c-0.5,0.3-0.7,0.8-0.7,1.3
				c0,0.4,0.1,0.7,0.4,1.1c0.3,0.3,1,0.8,2.1,1.3l2.6,1.3c2.7,1.4,4.6,2.7,5.6,4.1c1,1.4,1.5,3.1,1.5,4.9c0,2.5-0.9,4.6-2.8,6.3
				c-1.8,1.7-4.3,2.5-7.4,2.5c-4.1,0-7.4-1.6-9.9-4.8l4.4-4.8c0.8,1,1.8,1.8,2.9,2.4c1.1,0.6,2.1,0.9,3,0.9c0.9,0,1.7-0.2,2.3-0.7
				c0.6-0.5,0.9-1,0.9-1.6c0-1.1-1-2.2-3.1-3.2l-2.4-1.2c-4.6-2.3-6.9-5.2-6.9-8.7c0-2.2,0.9-4.2,2.6-5.7c1.7-1.6,3.9-2.4,6.6-2.4
				c1.8,0,3.6,0.4,5.2,1.2C215.6,49.6,216.9,50.7,218.1,52.3z"/>
			<path fill="#A8C73E" d="M15.7,38.3h7.8l7.1,13.8l7.1-13.8h7.7L34.3,60v16.6H27V60L15.7,38.3z"/>
			<path fill="#A8C73E" d="M63.8,48.3H71v28.3h-7.1v-3c-1.4,1.3-2.8,2.3-4.2,2.8c-1.4,0.6-2.9,0.9-4.5,0.9c-3.7,0-6.8-1.4-9.5-4.3
				c-2.7-2.8-4-6.4-4-10.6c0-4.4,1.3-8,3.9-10.7c2.6-2.8,5.7-4.2,9.4-4.2c1.7,0,3.3,0.3,4.8,1c1.5,0.6,2.9,1.6,4.1,2.9V48.3z
				 M56.4,54.1c-2.2,0-4,0.8-5.5,2.3c-1.5,1.6-2.2,3.5-2.2,6c0,2.4,0.7,4.5,2.2,6c1.5,1.6,3.3,2.4,5.5,2.4c2.2,0,4.1-0.8,5.6-2.3
				c1.5-1.6,2.2-3.6,2.2-6.1c0-2.5-0.7-4.5-2.2-6C60.5,54.9,58.6,54.1,56.4,54.1z"/>
			<path fill="#A8C73E" d="M84.1,48.3v3.1c1.3-1.3,2.7-2.2,4.2-2.9c1.5-0.6,3.1-1,4.8-1c3.7,0,6.8,1.4,9.4,4.2
				c2.6,2.8,3.9,6.4,3.9,10.7c0,4.2-1.3,7.7-4,10.6c-2.7,2.8-5.8,4.3-9.5,4.3c-1.6,0-3.1-0.3-4.6-0.9c-1.4-0.6-2.8-1.5-4.2-2.8V87
				h-7.1V48.3H84.1z M91.6,54.1c-2.2,0-4.1,0.8-5.6,2.3c-1.5,1.5-2.2,3.5-2.2,6c0,2.5,0.7,4.5,2.2,6.1c1.5,1.6,3.3,2.3,5.6,2.3
				c2.2,0,4-0.8,5.5-2.4c1.5-1.6,2.2-3.6,2.2-6c0-2.4-0.7-4.4-2.2-6C95.6,54.9,93.8,54.1,91.6,54.1z"/>
		</g>
	</g>
</g>
</svg>
